<?xml version="1.0" encoding="UTF-8"?>
<!DOCTYPE svg  PUBLIC '-//W3C//DTD SVG 1.0//EN'  'http://www.w3.org/TR/2001/REC-SVG-20010904/DTD/svg10.dtd'>
<svg enable-background="new 0 0 24 24" version="1.0" viewBox="0 0 24 24" xml:space="preserve" xmlns="http://www.w3.org/2000/svg"><path d="m9 9c0-1.7 1.3-3 3-3s3 1.3 3 3-1.3 3-3 3-3-1.3-3-3zm3 5c-4.6 0-6 3.3-6 3.3v1.7h12v-1.7s-1.4-3.3-6-3.3z"/><circle cx="18.5" cy="8.5" r="2.5"/><path d="m18.5 13c-1.2 0-2.1 0.3-2.8 0.8 2.3 1.1 3.2 3 3.2 3.2v0.1h4.1v-1.3c0-0.1-1.1-2.8-4.5-2.8z"/><circle cx="18.5" cy="8.5" r="2.5"/><path d="m18.5 13c-1.2 0-2.1 0.3-2.8 0.8 2.3 1.1 3.2 3 3.2 3.2v0.1h4.1v-1.3c0-0.1-1.1-2.8-4.5-2.8z"/><circle cx="5.5" cy="8.5" r="2.5"/><path d="M5.5,13c1.2,0,2.1,0.3,2.8,0.8c-2.3,1.1-3.2,3-3.2,3.2l0,0.1H1v-1.3C1,15.7,2.1,13,5.5,13z"/></svg>
